<?xml version="1.0" encoding="utf-8"?>
<!-- Generator: Adobe Illustrator 24.1.2, SVG Export Plug-In . SVG Version: 6.00 Build 0)  -->
<svg version="1.1" id="圖層_1" xmlns="http://www.w3.org/2000/svg" xmlns:xlink="http://www.w3.org/1999/xlink" x="0px" y="0px"
	 viewBox="0 0 322.8 181.5" style="enable-background:new 0 0 322.8 181.5;" xml:space="preserve">
<style type="text/css">
	.st0{fill:#E16B8C;}
	.st1{fill:none;stroke:#FADBDD;stroke-width:1.0425;stroke-miterlimit:10;}
	.st2{fill:#FFFFFF;}
	.st3{font-family:'NaikaiFont-Light';}
	.st4{font-size:32.4236px;}
</style>
<g>
	<g>
		<path class="st0" d="M263.5,123.3V59c-13.4,0-24.2-7.9-24.2-17.6H77.5c0,9.7-10.8,17.6-24.2,17.6v64.3c13.4,0,24.2,7.9,24.2,17.6
			h162C239.5,131.2,250.3,123.3,263.5,123.3z"/>
	</g>
	<path class="st1" d="M252.7,118.2V64.3c-12.1-1.8-19.2-5.3-24.2-15.7H88.3C83.6,59,76.2,62.5,64.1,64.3v53.9
		c14.5,3.5,19.2,7,24.2,15.7h140.2C233.5,123.3,240.6,119.8,252.7,118.2z"/>
</g>
<g>
	<g>
		<text transform="matrix(1.14 0 0 1 135.9712 102.0796)" class="st2 st3 st4">編輯</text>
	</g>
	<g>
		<path class="st2" d="M88.5,105.3c1.1-3.2,2.1-6.4,3.2-9.7c0.2-0.7,0.4-1.2,0.7-1.9c0.2-0.4,0.4-0.5,0.7-0.9
			c0.2-0.2,0.2-0.2,0.4-0.4c5.8-4.9,11.5-10.1,17.3-15c0.2-0.2,0.2-0.2,0.4-0.4c3.9,3.4,7.6,6.7,11.5,10.1c-0.2,0-0.4,0.2-0.4,0.2
			c-5.7,4.9-11.3,9.9-17,14.8c-0.7,0.7-1.6,1.1-2.5,1.2c-3.9,0.9-7.6,1.9-11.5,3c-0.2,0-0.5,0.2-0.7,0.2h-0.2
			c-0.2,0-0.4-0.2-0.7-0.2C88.9,106.1,88.7,105.8,88.5,105.3L88.5,105.3z M95.2,95.2c-0.7,1.9-1.2,3.9-1.9,5.8c0,0.2,0,0.4,0.2,0.4
			c0.4,0.4,0.7,0.7,1.1,0.9c0.2,0.2,0.4,0.2,0.5,0.2c2.1-0.5,4.2-1.1,6.2-1.6c0.2,0,0.2,0,0.4-0.2c-0.4-0.4-0.7-0.5-0.9-0.7
			c-0.2-0.2-0.2-0.2-0.2-0.4c0-0.5,0-1.1-0.2-1.4c0-0.7-0.2-1.2-0.2-1.9c-1.1,0-2.1-0.2-3.2-0.2c-0.7,0-1.2-0.2-1.8-0.7
			C95.4,95.2,95.4,95.2,95.2,95.2z"/>
		<path class="st2" d="M128.1,81.4c-3.5-3.2-7.2-6.4-10.9-9.5c0.7-0.5,1.4-1.4,2.3-1.8c1.6-0.9,3.4-0.7,4.8,0.5
			c1.8,1.6,3.5,3,5.3,4.6c1.6,1.4,1.6,3.5,0,4.9C129.1,80.7,128.6,81.1,128.1,81.4z"/>
		<path class="st2" d="M115.3,73.3c3.7,3.4,7.6,6.5,11.3,9.9c-0.9,0.7-1.6,1.4-2.5,2.1c-3.7-3.4-7.6-6.5-11.3-9.9
			C113.6,74.7,114.5,74,115.3,73.3z"/>
	</g>
</g>
</svg>
